<svg width="22" height="22" viewBox="0 0 22 22" fill="none" xmlns="http://www.w3.org/2000/svg">
<path d="M20.1321 13.1731C19.9542 12.7332 19.4533 12.5205 19.0133 12.6985C18.5732 12.8764 18.3607 13.3773 18.5386 13.8173L19.5507 16.3209L16.5447 14.9958C16.3271 14.8999 16.0795 14.8984 15.8608 14.9917C14.8335 15.43 13.733 15.6523 12.5898 15.6523C7.98906 15.6523 4.89846 12.05 4.89846 8.68551C4.89846 4.84403 8.3488 1.71875 12.5898 1.71875C16.8309 1.71875 20.2812 4.84403 20.2812 8.68551C20.2812 8.98522 20.2533 9.3441 20.2047 9.67006C20.1347 10.1395 20.4584 10.5768 20.9279 10.6468C21.3974 10.717 21.8346 10.3931 21.9046 9.92366C21.9661 9.51159 22 9.07185 22 8.68551C22 6.35103 21.0114 4.16057 19.2163 2.51766C17.4425 0.894135 15.0892 0 12.5898 0C10.0905 0 7.73722 0.894135 5.96335 2.51762C4.35924 3.98577 3.39984 5.89135 3.21374 7.94607C1.19606 9.28222 2.8652e-05 11.4233 2.8652e-05 13.7296C2.8652e-05 15.1702 0.453907 16.5371 1.31788 17.7135L0.062677 20.8185C-0.0684204 21.1427 0.0100833 21.5141 0.261235 21.7576C0.424903 21.9163 0.640563 22 0.859574 22C0.976578 22 1.09457 21.9761 1.20603 21.927L4.82524 20.3315C5.73566 20.6704 6.69803 20.842 7.69138 20.842C7.71286 20.842 7.73396 20.8403 7.75506 20.8388C9.1918 20.8279 10.5886 20.45 11.7983 19.7428C12.8819 19.1092 13.7732 18.239 14.3981 17.2112C15.0083 17.1016 15.6046 16.9361 16.1834 16.7149L20.7939 18.7473C20.9054 18.7964 21.0234 18.8203 21.1404 18.8203C21.3594 18.8203 21.5751 18.7366 21.7388 18.5779C21.9899 18.3344 22.0684 17.9631 21.9373 17.6388L20.1321 13.1731ZM7.69146 19.1211C7.67973 19.1211 7.6683 19.1223 7.65666 19.1228C6.77915 19.1183 5.93456 18.9459 5.14578 18.6093C4.92712 18.516 4.67949 18.5175 4.46189 18.6134L2.44937 19.5006L3.09859 17.8946C3.2186 17.5977 3.16355 17.2587 2.95584 17.015C2.14653 16.0656 1.71878 14.9295 1.71878 13.7296C1.71878 12.3562 2.29649 11.055 3.30728 10.0684C3.62199 11.7839 4.50993 13.425 5.8494 14.7141C7.51619 16.3183 9.72092 17.2476 12.1016 17.3595C10.9839 18.4597 9.38443 19.1211 7.69146 19.1211Z" fill="#B1B6BB"/>
<path d="M12.5469 9.58203C13.0215 9.58203 13.4062 9.19727 13.4062 8.72265C13.4062 8.24804 13.0215 7.86328 12.5469 7.86328C12.0723 7.86328 11.6875 8.24804 11.6875 8.72265C11.6875 9.19727 12.0723 9.58203 12.5469 9.58203Z" fill="#B1B6BB"/>
<path d="M15.9844 9.58203C16.459 9.58203 16.8437 9.19727 16.8437 8.72265C16.8437 8.24804 16.459 7.86328 15.9844 7.86328C15.5098 7.86328 15.125 8.24804 15.125 8.72265C15.125 9.19727 15.5098 9.58203 15.9844 9.58203Z" fill="#B1B6BB"/>
<path d="M9.10937 9.58203C9.58399 9.58203 9.96875 9.19727 9.96875 8.72265C9.96875 8.24804 9.58399 7.86328 9.10937 7.86328C8.63475 7.86328 8.25 8.24804 8.25 8.72265C8.25 9.19727 8.63475 9.58203 9.10937 9.58203Z" fill="#B1B6BB"/>
</svg>
