<svg width="22" height="22" viewBox="0 0 22 22" fill="none" xmlns="http://www.w3.org/2000/svg">
<path d="M4.81091 22.0001H17.1856C18.3231 22.0001 19.2481 21.0751 19.2481 19.9376V11.9169H20.8522C21.4838 11.9169 21.998 11.4026 21.998 10.771C21.998 10.4678 21.8742 10.1707 21.6588 9.95533L11.4739 0.191215C11.2081 -0.0637385 10.7883 -0.0637385 10.5224 0.191215L0.347622 9.94425C0.12221 10.1707 -0.00149155 10.4678 -0.00149155 10.771C-0.00149155 11.4026 0.512611 11.9169 1.14421 11.9169H2.74845V19.9376C2.74845 21.0751 3.67327 22.0001 4.81091 22.0001ZM20.2847 10.5419H18.5606C18.1811 10.5419 17.8731 10.8499 17.8731 11.2294V19.9376C17.8731 20.3171 17.5651 20.6251 17.1856 20.6251H4.81091C4.43141 20.6251 4.12342 20.3171 4.12342 19.9376V11.2294C4.12342 10.8499 3.81543 10.5419 3.43594 10.5419H1.71168L10.9983 1.64037L20.2847 10.5419ZM1.3092 10.927H1.30013H1.3092Z" fill="#007BFF"/>
</svg>
