<svg width="20" height="22" viewBox="0 0 20 22" fill="none" xmlns="http://www.w3.org/2000/svg">
<path d="M18.0723 8.46139L5.07851 0.451786C4.13844 -0.126961 3.00187 -0.151024 2.03812 0.387418C1.07438 0.925775 0.499023 1.90637 0.499023 3.01028V18.9565C0.499023 20.6257 1.84395 21.9909 3.49696 22C3.50147 22 3.50598 22 3.51041 22C4.02698 22 4.56529 21.838 5.06807 21.5312C5.47254 21.2845 5.60037 20.7566 5.3536 20.3521C5.10683 19.9476 4.57883 19.8198 4.17449 20.0666C3.93932 20.21 3.70966 20.2843 3.5062 20.2842C2.88251 20.2808 2.21473 19.7465 2.21473 18.9566V3.01032C2.21473 2.53676 2.46154 2.11623 2.8749 1.88527C3.2883 1.65431 3.77578 1.66462 4.17853 1.9126L17.1724 9.9222C17.5629 10.1627 17.7864 10.5636 17.7854 11.0222C17.7845 11.4808 17.5594 11.8809 17.1667 12.1205L7.7721 17.8727C7.36802 18.1201 7.24101 18.6482 7.48842 19.0523C7.73579 19.4563 8.26392 19.5833 8.668 19.3359L18.0615 13.5845C18.9608 13.0358 19.4991 12.0793 19.5012 11.0257C19.5034 9.97217 18.969 9.01345 18.0723 8.46139Z" fill="#B1B6BB"/>
</svg>
